<?xml version="1.0" encoding="UTF-8"?> <svg xmlns="http://www.w3.org/2000/svg" viewBox="0 0 468.73 134.94"><defs><style>.cls-1{fill:#5b5049;}.cls-2{fill:#e3d9ca;}</style></defs><title>logo-enkel</title><g id="Layer_2" data-name="Layer 2"><g id="Layer_1-2" data-name="Layer 1"><polygon class="cls-1" points="54.47 90.78 54.47 75.17 0 21.02 0 0 65.3 64.66 89.19 41.09 89.19 63.7 76.44 75.17 76.13 90.78 54.47 90.78"></polygon><polygon class="cls-2" points="34.72 90.78 34.72 75.49 89.19 21.66 89.19 0 23.89 64.98 0 41.41 0 63.07 13.06 75.81 13.38 90.78 34.72 90.78"></polygon><polygon class="cls-1" points="184.95 2.89 128.93 2.89 128.93 87.8 184.95 87.8 184.95 74.25 146.06 73.89 146.06 50.46 179.59 50.46 179.59 37.14 146.06 37.14 146.06 17.16 184.95 17.16 184.95 2.89"></polygon><polygon class="cls-1" points="193.51 2.89 193.51 87.8 210.44 87.8 210.44 31.43 245.25 87.8 262.73 87.8 262.73 2.89 245.25 2.89 245.25 59.26 210.44 2.89 193.51 2.89"></polygon><polygon class="cls-1" points="275.57 2.89 275.57 87.8 293.41 87.8 293.41 63.54 301.94 54.62 323.74 87.8 344.79 87.8 313.75 40.71 343.36 2.89 322.67 2.89 293.06 42.13 292.7 2.89 275.57 2.89"></polygon><polygon class="cls-1" points="349.43 2.89 349.43 87.8 406.16 87.8 406.16 73.89 366.56 73.89 366.91 50.46 400.09 50.46 400.09 37.14 367.2 37.15 367.2 17.05 406.16 17.22 406.16 2.89 349.43 2.89"></polygon><polygon class="cls-1" points="414.22 2.89 414.22 87.8 468.73 87.8 468.73 73.77 431.43 73.77 431.25 2.89 414.22 2.89"></polygon><path class="cls-1" d="M143.91,128.56a4,4,0,0,0-1.43-3.24,15.39,15.39,0,0,0-5.25-2.26,18,18,0,0,1-5.57-2.34,5.66,5.66,0,0,1-.18-9.27,9.52,9.52,0,0,1,5.93-1.77,9.79,9.79,0,0,1,4.38.95,7.2,7.2,0,0,1,3,2.63,6.92,6.92,0,0,1,1.06,3.77h-2.09A5.17,5.17,0,0,0,142,113a6.72,6.72,0,0,0-4.63-1.53,7.29,7.29,0,0,0-4.49,1.26,3.93,3.93,0,0,0-1.67,3.29,3.72,3.72,0,0,0,1.5,3.06,14.14,14.14,0,0,0,4.82,2.09,22.49,22.49,0,0,1,5,1.87,7.21,7.21,0,0,1,2.57,2.32,5.85,5.85,0,0,1,.86,3.19,5.57,5.57,0,0,1-2.32,4.66,9.9,9.9,0,0,1-6.12,1.76,11.94,11.94,0,0,1-4.77-.93,7.25,7.25,0,0,1-3.29-2.6,6.69,6.69,0,0,1-1.13-3.83h2.08a4.91,4.91,0,0,0,1.94,4.1,8.23,8.23,0,0,0,5.17,1.5,7.64,7.64,0,0,0,4.6-1.26A4,4,0,0,0,143.91,128.56Z"></path><path class="cls-1" d="M153.23,110l9.07,21.69L171.4,110h2.77V134.6h-2.08V123.9l.17-11-9.15,21.68H161.5L152.39,113l.17,10.82V134.6h-2.08V110Z"></path><path class="cls-1" d="M194,127.7H182.81l-2.53,6.9H178.1L187.4,110h2l9.3,24.58h-2.16Zm-10.52-1.76h9.86l-4.93-13.39Z"></path><path class="cls-1" d="M211.47,124.35h-7.14V134.6h-2.09V110h8a9.13,9.13,0,0,1,6.15,1.91,7.28,7.28,0,0,1,.83,9.49,7.1,7.1,0,0,1-3.72,2.49l6.15,10.47v.22h-2.21Zm-7.14-1.75h6.37a5.91,5.91,0,0,0,4.2-1.49,5.61,5.61,0,0,0-.07-7.9,6.89,6.89,0,0,0-4.64-1.43h-5.86Z"></path><path class="cls-1" d="M239.56,111.78h-8.42V134.6h-2.08V111.78h-8.4V110h18.9Z"></path><path class="cls-1" d="M251.26,134.6V110h7.26a9.45,9.45,0,0,1,6,1.63,5.79,5.79,0,0,1,2,4.81,5.47,5.47,0,0,1-1,3.32,5.62,5.62,0,0,1-2.84,2,6,6,0,0,1,3.45,2.11,5.88,5.88,0,0,1,1.3,3.78,6.4,6.4,0,0,1-2.1,5.09,8.61,8.61,0,0,1-5.85,1.83ZM253.34,121H259a6.39,6.39,0,0,0,4-1.22,4.19,4.19,0,0,0,1.42-3.43A4.12,4.12,0,0,0,263,112.9a7.36,7.36,0,0,0-4.47-1.12h-5.18Zm0,1.76v10h6.23a6.24,6.24,0,0,0,4.23-1.35,4.74,4.74,0,0,0,1.56-3.77,4.58,4.58,0,0,0-1.5-3.6,6,6,0,0,0-4.12-1.32Z"></path><path class="cls-1" d="M289.38,110V126.8a8.45,8.45,0,0,1-1.1,4.32,7.17,7.17,0,0,1-3,2.83,9.92,9.92,0,0,1-4.52,1,8.92,8.92,0,0,1-6.22-2.12,7.74,7.74,0,0,1-2.42-5.87V110h2.06v16.63a6.39,6.39,0,0,0,1.77,4.82,6.64,6.64,0,0,0,4.81,1.71,6.55,6.55,0,0,0,4.8-1.72,6.38,6.38,0,0,0,1.77-4.79V110Z"></path><path class="cls-1" d="M297.7,134.6h-2.07V110h2.07Z"></path><path class="cls-1" d="M306.47,132.84H318.6v1.76H304.37V110h2.1Z"></path><path class="cls-1" d="M322.59,134.6V110h6.87a10.68,10.68,0,0,1,5.42,1.38,9.55,9.55,0,0,1,3.74,3.94,12.47,12.47,0,0,1,1.34,5.84v2.26a12.39,12.39,0,0,1-1.34,5.84,9.51,9.51,0,0,1-3.75,3.94,11.05,11.05,0,0,1-5.56,1.38Zm2.07-22.82v21.06h4.66a8,8,0,0,0,6.23-2.57,9.93,9.93,0,0,0,2.35-7v-2.16a9.76,9.76,0,0,0-2.31-6.8,7.9,7.9,0,0,0-6.1-2.56Z"></path><path class="cls-1" d="M347.76,134.6h-2.08V110h2.08Z"></path><path class="cls-1" d="M372.72,134.6h-2.07l-14.13-21v21h-2.09V110h2.09l14.15,21V110h2.05Z"></path><path class="cls-1" d="M396.71,131.68a7,7,0,0,1-3.38,2.4,14.77,14.77,0,0,1-5.16.86,9.53,9.53,0,0,1-5.13-1.39,9.14,9.14,0,0,1-3.48-3.91,13.3,13.3,0,0,1-1.25-5.81v-3.11q0-5.11,2.58-8.07a8.75,8.75,0,0,1,6.94-3,9.19,9.19,0,0,1,6.11,1.94,8,8,0,0,1,2.76,5.32h-2.08a6.37,6.37,0,0,0-2.2-4.1,7.06,7.06,0,0,0-4.57-1.4,6.69,6.69,0,0,0-5.45,2.45c-1.34,1.63-2,3.94-2,6.91v2.9a12.22,12.22,0,0,0,.95,5,7.58,7.58,0,0,0,2.74,3.34,7.21,7.21,0,0,0,4.09,1.18,11.47,11.47,0,0,0,4.61-.84,5.09,5.09,0,0,0,1.86-1.3v-6.35H388v-1.75h8.67Z"></path></g></g></svg> 