<?xml version="1.0" encoding="UTF-8"?> <svg xmlns="http://www.w3.org/2000/svg" xmlns:xlink="http://www.w3.org/1999/xlink" xmlns:xodm="http://www.corel.com/coreldraw/odm/2003" xml:space="preserve" width="210mm" height="70mm" version="1.1" style="shape-rendering:geometricPrecision; text-rendering:geometricPrecision; image-rendering:optimizeQuality; fill-rule:evenodd; clip-rule:evenodd" viewBox="0 0 21000 7000"> <defs> <style type="text/css"> .fil0 {fill:#EF4E23;fill-rule:nonzero} </style> </defs> <g id="Capa_x0020_1"> <metadata id="CorelCorpID_0Corel-Layer"></metadata> <path class="fil0" d="M7674.51 3807.76l0 -642.74 -2102.52 0c23.55,-504.54 311.56,-818.82 832.79,-818.82l1251.78 0 0 -618.75 -1383 0c-834.84,0 -1517.83,555.79 -1517.83,1517.83l0 571.35c0,834.77 631.45,1466.33 1466.29,1466.33l1434.54 0 0 -618.66 -1200.25 0c-544.44,0 -886.74,-239.09 -886.74,-783.44l0 -72.97 2104.94 -0.03 0 -0.1zm-3079.77 -2080.31l-3101.87 0 0 612.87 1167.06 0 0 2942.64 767.82 0 0 -2942.64 1166.99 0 0 -612.87zm14163.81 3555.51l734.32 0 -1516.89 -3555.51 -29.06 0 -676.24 0 -29.15 0 -1516.69 3555.47 734.29 0.04 355.2 -849.05 1589.12 0 355.1 849.05zm-1675.26 -1491.8l525.43 -1255.61 525.43 1255.61 -1050.86 0zm-2028.41 -2063.71l-318.11 0 -387.18 0 -906.23 2735.14 -906.09 -2735.14 -418.67 0 -286.76 0 -418.63 0 0 3555.51 705.39 0 0 -2726.08 942.55 2726.08 110.59 0 543.44 0 110.33 0 911.26 -2635.34 0 2635.34 705.6 0 0 -3555.51 -387.49 0zm-3806.12 0l-825.4 0 -936.63 1390.47 -889.13 -1390.47 -825.3 0 1354.35 2031.16 0 1524.35 767.72 0 0 -1524.35 1354.39 -2031.16z"></path> </g> </svg> 